<?xml version="1.0" standalone="no"?>
<!DOCTYPE svg PUBLIC "-//W3C//DTD SVG 20010904//EN"
 "http://www.w3.org/TR/2001/REC-SVG-20010904/DTD/svg10.dtd">
<svg version="1.0" xmlns="http://www.w3.org/2000/svg"
 width="512.000000pt" height="512.000000pt" viewBox="0 0 512.000000 512.000000"
 preserveAspectRatio="xMidYMid meet">
<metadata>
Created by potrace 1.14, written by Peter Selinger 2001-2017
</metadata>
<g transform="translate(0.000000,512.000000) scale(0.100000,-0.100000)"
fill="#000000" stroke="none">
<path d="M2485 4779 c-55 -23 -103 -45 -106 -51 -3 -5 -9 -9 -13 -9 -11 2 -22
-2 -83 -29 l-52 -22 49 -72 c28 -39 68 -96 89 -126 22 -30 40 -61 41 -67 0 -7
5 -13 10 -13 6 0 10 -6 10 -14 0 -7 13 -27 29 -44 16 -16 28 -32 27 -34 -2 -1
5 -10 15 -20 16 -15 19 -13 39 34 12 27 38 84 57 126 20 43 35 80 35 85 -1 4
3 7 8 7 6 0 9 3 8 8 0 4 17 45 40 92 63 133 63 133 0 158 -86 34 -96 34 -203
-9z"/>
<path d="M2810 4730 c-8 -5 -11 -10 -6 -10 5 0 3 -7 -4 -15 -7 -8 -9 -15 -4
-15 5 0 4 -4 -2 -8 -12 -8 -64 -105 -64 -120 0 -5 -21 -54 -47 -108 -26 -55
-45 -101 -44 -103 2 -2 -2 -7 -7 -10 -12 -8 -40 -62 -58 -114 -14 -40 -14 -41
23 -94 20 -29 41 -53 46 -53 5 0 7 -7 3 -15 -3 -8 -2 -15 2 -15 9 0 80 -100
102 -143 8 -16 25 -39 38 -53 14 -13 22 -24 19 -24 -3 0 8 -14 24 -31 16 -17
29 -35 29 -41 0 -11 77 -128 94 -143 6 -5 37 -50 68 -100 32 -49 67 -100 78
-112 11 -13 19 -23 16 -23 -2 0 5 -11 17 -25 20 -23 23 -23 35 -7 8 9 34 57
59 107 24 49 50 93 56 97 7 4 8 8 2 8 -6 0 -6 3 0 8 11 7 60 97 104 187 13 28
29 53 35 57 6 4 7 8 3 8 -4 0 3 15 17 33 14 19 23 37 19 40 -3 4 -1 7 5 7 7 0
12 4 12 10 0 5 28 60 62 122 35 62 62 116 60 121 -1 4 2 7 7 7 4 0 30 43 56
96 38 77 45 98 34 105 -8 5 -20 9 -26 9 -7 0 -13 4 -13 10 0 5 -3 9 -7 8 -5
-1 -19 4 -33 12 -14 7 -27 13 -30 13 -3 0 -28 10 -55 22 -28 12 -69 28 -90 35
-22 7 -69 26 -103 42 -35 15 -70 28 -78 28 -8 0 -14 5 -14 11 0 5 -4 7 -10 4
-5 -3 -10 -1 -10 5 0 7 -6 10 -14 7 -8 -3 -16 -2 -18 2 -3 9 -267 119 -305
128 -13 3 -23 10 -23 16 0 6 -3 7 -7 4 -3 -4 -14 -1 -22 7 -11 10 -21 12 -31
6z"/>
<path d="M2099 4616 c-30 -13 -78 -34 -105 -48 -27 -14 -52 -25 -56 -26 -5 -1
-23 -9 -40 -16 -18 -8 -76 -31 -128 -52 -52 -21 -96 -42 -98 -46 -2 -4 -9 -5
-16 -2 -8 3 -20 -2 -29 -10 -8 -8 -17 -12 -21 -9 -3 4 -6 1 -6 -6 0 -8 -7 -11
-15 -7 -8 3 -15 2 -15 -3 0 -4 -15 -13 -32 -18 -59 -20 -258 -103 -293 -123
-19 -11 -35 -17 -35 -14 0 4 -7 1 -15 -6 -8 -6 -19 -9 -25 -5 -5 3 -10 2 -10
-3 0 -10 -116 -62 -138 -62 -14 0 -25 -23 -82 -175 -23 -60 -48 -120 -56 -132
-8 -13 -11 -23 -7 -23 5 0 2 -4 -5 -9 -7 -4 -14 -18 -15 -29 -1 -12 -5 -22 -9
-22 -4 0 -8 -6 -8 -12 0 -12 -19 -64 -83 -225 -11 -29 -25 -53 -29 -53 -5 0
-7 -4 -4 -8 2 -4 1 -14 -4 -22 -6 -9 8 -33 46 -78 31 -36 63 -76 72 -91 9 -14
24 -32 34 -39 9 -7 44 -48 77 -92 33 -44 77 -97 97 -118 20 -20 47 -53 59 -73
13 -19 39 -52 58 -72 19 -20 32 -37 30 -37 -3 0 9 -13 26 -29 17 -16 31 -32
31 -36 0 -7 99 -128 337 -413 12 -14 24 -24 26 -22 6 7 61 113 63 123 1 4 3
10 4 15 1 4 2 10 1 15 0 4 3 7 7 7 5 0 23 33 41 73 18 39 49 106 69 147 20 41
37 78 38 83 1 4 3 10 4 15 1 4 2 10 1 15 0 4 3 7 7 7 5 0 20 26 34 58 15 31
43 93 64 137 20 44 37 83 36 88 -1 4 3 7 9 7 5 0 7 5 3 11 -3 6 -2 14 3 18 5
3 21 31 35 61 73 151 111 236 110 243 -1 4 3 7 9 7 5 0 7 5 3 11 -3 6 -2 14 3
18 10 6 33 53 103 211 24 52 47 100 51 106 5 6 6 14 2 17 -3 4 -1 7 6 7 7 0
10 4 7 9 -4 5 -2 11 3 13 5 1 32 57 61 123 29 66 58 123 64 127 6 4 8 8 3 8
-4 0 -1 13 8 29 13 26 13 31 0 45 -8 8 -15 17 -15 20 0 3 -27 44 -60 91 -33
47 -60 88 -60 91 0 3 -8 13 -17 22 -9 9 -38 51 -65 92 -51 81 -80 120 -88 119
-3 0 -30 -10 -61 -23z"/>
<path d="M3775 4316 c-5 -6 -11 -18 -13 -26 -2 -8 -7 -17 -10 -20 -8 -6 -20
-29 -95 -175 -29 -55 -55 -102 -58 -105 -6 -5 -109 -195 -133 -247 -6 -13 -15
-23 -19 -23 -5 0 -5 -4 -2 -10 3 -5 1 -10 -5 -10 -6 0 -8 -4 -5 -10 3 -5 1
-10 -5 -10 -6 0 -9 -4 -6 -9 4 -5 2 -11 -3 -13 -4 -1 -37 -57 -71 -123 -34
-66 -71 -132 -82 -147 -10 -15 -29 -51 -43 -81 l-24 -54 36 -54 c20 -30 39
-56 42 -59 5 -4 83 -119 144 -214 7 -10 24 -32 39 -50 15 -17 33 -42 40 -56
19 -38 71 -115 80 -118 4 -2 8 -10 8 -17 0 -7 4 -15 8 -17 10 -4 142 -197 142
-208 0 -4 7 -11 16 -14 8 -3 12 -10 9 -16 -3 -5 -2 -10 2 -10 11 0 73 -86 73
-100 0 -6 3 -10 8 -10 4 0 13 -12 19 -27 7 -16 23 -40 36 -54 14 -14 29 -35
36 -46 6 -12 42 -67 80 -122 38 -55 67 -102 63 -105 -3 -3 0 -6 7 -6 6 0 28
-26 49 -58 l38 -59 18 44 c10 25 28 53 39 64 12 10 17 19 11 19 -5 0 -5 3 1 8
6 4 30 48 55 97 25 50 47 92 50 95 3 3 14 24 25 47 11 24 23 43 28 43 4 0 7 6
7 14 0 8 3 16 8 18 4 2 34 57 67 123 33 65 68 127 78 137 10 11 15 23 12 28
-4 6 -2 10 3 10 6 0 15 12 20 28 6 15 36 73 67 130 30 56 50 102 44 102 -6 0
-9 7 -5 15 3 8 2 15 -3 15 -5 0 -16 21 -25 48 -10 26 -33 85 -52 132 -19 47
-34 91 -34 98 0 6 -4 12 -8 12 -4 0 -8 10 -9 22 -1 11 -8 25 -15 29 -7 5 -8 9
-3 9 7 0 7 3 0 8 -5 4 -15 21 -21 37 -75 197 -106 271 -114 273 -5 2 -6 10 -3
18 3 8 -1 14 -8 14 -7 0 -9 3 -6 7 4 3 2 12 -4 20 -6 7 -8 13 -4 13 4 0 2 7
-5 15 -7 8 -9 15 -4 15 5 0 4 4 -2 8 -11 7 -124 289 -124 310 0 7 -5 12 -12
12 -6 0 -9 3 -5 6 3 4 -1 13 -9 21 -8 9 -13 22 -10 29 3 8 1 14 -4 14 -5 0
-12 10 -15 23 -26 90 -36 105 -83 122 -78 28 -102 40 -102 47 0 4 -7 5 -15 2
-8 -4 -15 -1 -15 6 0 6 -4 8 -10 5 -5 -3 -10 -1 -10 5 0 6 -4 9 -9 6 -5 -4
-11 -3 -13 1 -1 5 -23 15 -48 25 -25 9 -61 23 -80 31 -27 11 -37 12 -45 3z"/>
<path d="M2509 4089 c-7 -19 -14 -39 -15 -44 -1 -6 -16 -33 -33 -60 -17 -27
-31 -54 -31 -60 0 -6 -20 -53 -45 -104 -25 -51 -45 -99 -45 -107 0 -8 -5 -14
-11 -14 -5 0 -7 -4 -4 -10 3 -5 1 -10 -5 -10 -6 0 -9 -4 -6 -9 4 -5 2 -11 -3
-13 -4 -1 -34 -61 -65 -133 -32 -71 -62 -132 -67 -133 -5 -2 -6 -8 -3 -13 3
-6 -2 -19 -12 -30 -9 -10 -13 -19 -8 -19 5 0 4 -4 -1 -8 -6 -4 -24 -36 -39
-72 -16 -36 -44 -98 -62 -138 -19 -41 -34 -78 -34 -83 0 -5 -4 -9 -10 -9 -5 0
-9 -3 -8 -7 1 -5 -10 -30 -24 -58 -14 -27 -44 -94 -68 -147 -23 -54 -46 -98
-50 -98 -4 0 -7 -6 -6 -12 0 -7 -18 -51 -41 -98 -22 -47 -58 -123 -79 -170
-21 -47 -43 -88 -49 -92 -5 -4 -6 -8 -1 -8 4 0 1 -12 -9 -26 -14 -22 -15 -28
-4 -35 8 -5 10 -9 4 -9 -5 0 1 -7 13 -16 12 -8 40 -42 62 -74 22 -32 50 -66
62 -74 12 -9 18 -16 13 -16 -5 0 5 -12 21 -27 16 -16 40 -44 54 -64 14 -20 44
-59 67 -85 23 -27 88 -104 143 -171 56 -68 105 -123 109 -123 4 0 27 40 52 90
24 50 46 90 49 90 4 0 35 57 70 128 35 70 67 129 71 132 8 7 40 68 38 76 0 4
4 10 9 13 5 3 24 35 42 71 18 35 43 81 56 101 12 20 20 40 17 43 -4 3 -1 6 6
6 7 0 9 5 6 10 -3 6 -1 10 5 10 6 0 9 4 5 9 -3 6 1 13 8 18 7 4 37 55 66 113
29 58 61 117 72 131 10 14 16 29 12 33 -3 3 -2 6 3 6 6 0 36 52 68 115 33 63
63 115 68 115 5 0 7 4 4 8 -3 5 8 27 23 50 15 24 39 66 52 95 13 28 26 54 29
57 3 3 14 25 25 49 11 24 25 50 32 57 10 10 0 32 -57 116 -38 57 -74 109 -80
116 -6 6 -8 12 -5 12 3 0 -8 14 -24 31 -16 16 -37 46 -46 65 -9 19 -19 34 -23
34 -4 0 -16 18 -26 41 -11 22 -28 45 -38 50 -10 5 -18 16 -18 24 0 8 -4 15
-10 15 -5 0 -10 5 -10 11 0 7 -31 57 -70 111 -38 55 -70 101 -70 104 0 3 -8
14 -18 25 -11 10 -25 32 -33 47 -8 15 -18 32 -22 37 -4 6 -14 18 -21 29 -12
17 -13 16 -27 -15z"/>
<path d="M636 3241 c-25 -65 -46 -122 -46 -129 0 -7 -5 -12 -12 -12 -6 0 -8
-3 -5 -7 4 -3 -3 -21 -14 -40 -11 -18 -17 -33 -14 -33 4 0 2 -7 -5 -15 -7 -8
-9 -15 -4 -15 5 0 5 -4 -1 -8 -5 -4 -16 -23 -23 -42 -8 -19 -30 -78 -49 -130
-20 -52 -41 -98 -47 -102 -6 -4 -7 -8 -2 -8 5 0 3 -7 -4 -15 -7 -8 -10 -15 -6
-15 4 0 -1 -11 -10 -25 -9 -14 -13 -25 -10 -25 4 0 0 -10 -8 -23 -16 -24 -11
-67 7 -67 6 0 7 -3 4 -7 -4 -3 0 -17 8 -30 9 -13 13 -28 10 -33 -3 -6 -2 -10
3 -10 5 0 21 -33 36 -72 24 -63 63 -162 91 -233 5 -11 7 -23 7 -27 -1 -5 3 -8
9 -8 5 0 7 -4 4 -10 -3 -5 -1 -10 5 -10 6 0 8 -4 5 -10 -3 -5 -1 -10 4 -10 6
0 11 -7 11 -15 0 -8 4 -23 9 -33 6 -9 31 -73 57 -142 26 -69 50 -127 53 -130
3 -3 7 -14 9 -24 2 -11 10 -29 19 -42 8 -13 12 -28 8 -34 -3 -5 -2 -10 3 -10
5 0 19 -24 30 -53 55 -142 72 -185 88 -222 10 -22 17 -43 16 -47 -1 -5 2 -8 8
-8 6 0 9 -3 8 -7 -1 -5 4 -21 11 -38 18 -40 23 -54 64 -159 30 -74 36 -84 42
-65 4 13 16 36 27 52 11 15 16 27 13 27 -4 0 0 11 9 25 9 14 13 25 9 25 -5 0
-3 4 2 8 6 4 26 41 44 82 69 153 85 185 94 191 5 4 6 12 3 18 -4 6 -2 11 3 11
6 0 10 3 9 8 -1 4 12 34 29 67 17 33 45 95 63 138 18 43 39 84 46 92 8 8 14
18 13 22 -1 4 16 46 38 93 22 47 53 113 68 148 16 34 32 62 37 62 4 0 7 3 7 8
-1 4 0 10 1 15 1 4 3 10 4 15 1 4 14 31 30 60 30 58 28 65 -22 118 -12 12 -18
25 -15 28 4 3 1 6 -5 6 -6 0 -31 26 -56 58 -25 31 -55 67 -66 80 -11 12 -19
22 -16 22 3 0 -17 23 -45 52 -27 28 -49 55 -49 59 0 11 -36 54 -77 93 -18 17
-33 37 -33 43 0 7 -4 13 -10 13 -5 0 -16 12 -24 28 -8 15 -35 49 -60 76 -25
27 -46 51 -46 53 0 3 -66 84 -147 181 -82 97 -148 179 -148 182 0 3 -12 17
-27 31 l-27 27 -45 -117z"/>
<path d="M3152 3168 c-6 -13 -28 -50 -47 -83 -19 -33 -51 -93 -71 -132 -19
-40 -39 -73 -45 -73 -6 0 -8 -4 -5 -9 3 -4 -9 -30 -26 -57 -17 -27 -57 -102
-90 -166 -33 -65 -64 -118 -69 -118 -5 0 -9 -9 -9 -19 0 -11 -3 -21 -7 -23 -5
-1 -32 -50 -62 -108 -30 -58 -59 -108 -64 -111 -5 -3 -8 -9 -8 -13 2 -17 -1
-24 -19 -44 -12 -12 -17 -22 -13 -22 4 0 4 -4 -2 -8 -5 -4 -37 -60 -70 -124
-33 -65 -63 -118 -68 -118 -4 0 -5 -4 -2 -10 3 -5 1 -10 -5 -10 -6 0 -9 -4 -6
-9 4 -5 2 -11 -2 -13 -4 -1 -27 -40 -51 -86 -23 -46 -55 -105 -71 -132 -16
-26 -26 -51 -23 -54 4 -3 2 -6 -3 -6 -6 0 -20 -17 -32 -38 l-21 -38 22 -25
c51 -56 137 -161 137 -167 0 -4 26 -34 56 -67 31 -33 67 -76 79 -95 12 -20 38
-52 56 -71 19 -19 47 -53 64 -74 60 -82 416 -505 424 -505 4 0 11 3 15 7 4 5
11 8 15 8 5 0 35 12 67 27 33 14 106 45 164 68 58 23 117 48 133 56 15 9 27
12 27 9 0 -9 62 36 77 55 6 8 9 18 7 22 -3 5 -1 8 5 8 5 0 15 16 22 35 7 19
17 35 21 35 4 0 8 5 8 11 0 7 20 49 45 95 25 46 46 87 46 91 0 5 8 17 18 28
10 11 42 67 71 125 29 58 61 117 72 133 11 15 16 27 11 27 -4 0 -3 4 3 8 7 4
39 59 72 122 33 63 78 146 100 183 l40 69 -20 34 c-11 19 -24 34 -29 34 -5 0
-9 4 -9 8 0 14 -132 212 -158 239 -7 7 -10 13 -5 13 4 0 0 5 -9 11 -10 5 -18
14 -18 20 0 5 -5 15 -10 22 -6 7 -27 37 -47 67 -20 30 -40 57 -45 58 -4 2 -8
8 -8 14 0 5 -26 46 -58 91 -32 45 -72 103 -88 129 -16 27 -32 48 -36 48 -5 0
-8 7 -8 15 0 8 -4 15 -8 15 -5 0 -32 39 -61 86 -29 47 -59 88 -67 91 -8 3 -12
9 -9 13 3 5 -3 13 -12 19 -10 6 -14 11 -10 11 4 0 -11 25 -33 55 -22 30 -45
66 -52 80 -6 14 -15 25 -20 25 -4 0 -8 7 -8 15 0 8 -4 15 -10 15 -5 0 -10 7
-10 15 0 8 -4 15 -9 15 -5 0 -33 38 -63 85 -52 82 -55 85 -66 63z"/>
<path d="M4737 2720 c-9 -11 -14 -20 -10 -20 3 0 -2 -10 -13 -22 -11 -13 -46
-76 -78 -140 -33 -65 -63 -118 -68 -118 -5 0 -6 -4 -3 -10 3 -5 1 -10 -5 -10
-6 0 -8 -4 -5 -10 3 -5 2 -10 -4 -10 -5 0 -13 -10 -17 -22 -4 -13 -37 -78 -74
-145 -37 -67 -65 -124 -62 -127 3 -4 1 -6 -5 -6 -6 0 -36 -50 -68 -112 -31
-61 -64 -123 -74 -137 -25 -35 -35 -71 -21 -71 6 0 8 -4 5 -10 -3 -5 -1 -10 4
-10 6 0 11 -7 11 -15 0 -8 5 -15 10 -15 6 0 14 -8 17 -17 12 -34 113 -175 113
-159 0 9 5 16 11 16 6 0 9 7 5 15 -3 8 -2 15 3 15 5 0 16 21 26 48 9 26 31 81
47 122 17 41 35 90 40 108 5 17 13 32 19 32 6 0 7 4 4 10 -3 5 1 20 9 32 9 12
16 30 16 40 0 10 4 18 9 18 5 0 11 10 14 23 9 38 97 260 109 274 6 7 7 13 3
13 -4 0 0 11 9 25 9 14 14 25 10 25 -4 0 -1 7 6 15 7 8 9 15 4 15 -5 0 -3 4 3
8 10 6 59 125 76 182 1 6 -30 101 -48 142 -11 27 -11 27 -28 8z"/>
<path d="M1620 2200 c0 -17 -81 -194 -91 -198 -4 -2 -5 -10 -2 -18 3 -8 0 -14
-7 -14 -6 0 -8 -4 -5 -10 3 -5 2 -10 -3 -10 -5 0 -19 -24 -32 -52 -12 -29 -40
-91 -61 -138 -22 -47 -39 -91 -39 -98 0 -6 -5 -12 -11 -12 -5 0 -7 -4 -4 -10
3 -5 1 -10 -5 -10 -6 0 -8 -4 -5 -10 3 -5 2 -10 -3 -10 -5 0 -17 -19 -27 -42
-9 -24 -34 -81 -55 -128 -21 -47 -41 -95 -45 -107 -3 -13 -11 -23 -16 -23 -6
0 -7 -4 -4 -10 3 -5 1 -10 -5 -10 -6 0 -8 -4 -5 -10 3 -5 1 -10 -5 -10 -6 0
-9 -4 -6 -9 4 -5 2 -11 -3 -13 -5 -1 -20 -30 -34 -63 -14 -33 -37 -89 -52
-125 -15 -36 -31 -67 -36 -70 -4 -3 -5 -10 -1 -16 9 -12 128 -64 148 -64 8 0
14 -5 14 -11 0 -5 4 -8 9 -4 5 3 12 1 16 -5 4 -6 11 -8 16 -5 5 4 9 1 9 -5 0
-6 5 -8 10 -5 6 3 10 2 10 -4 0 -6 12 -14 28 -17 15 -4 59 -20 97 -36 39 -16
90 -36 114 -45 24 -8 77 -31 118 -50 41 -19 75 -34 76 -32 1 2 9 18 18 34 58
112 84 161 90 165 3 3 13 19 21 35 100 192 120 230 126 235 4 3 8 12 10 20 2
8 10 22 17 30 7 8 39 67 71 130 31 63 60 117 64 120 4 3 10 15 14 28 4 12 12
22 17 22 14 0 11 26 -6 40 -9 7 -13 15 -11 18 3 2 -5 13 -17 23 -13 9 -36 37
-52 61 -16 24 -42 55 -58 71 -15 15 -26 27 -23 27 3 0 -8 13 -24 29 -17 15
-30 33 -30 40 0 6 -3 11 -8 11 -4 0 -14 11 -22 24 -8 14 -36 48 -63 78 -26 29
-77 90 -113 136 -35 45 -69 82 -75 82 -6 0 -8 4 -5 9 3 4 -6 19 -19 31 -16 15
-25 19 -25 10z"/>
<path d="M4153 1652 c-26 -57 -55 -104 -68 -114 -5 -4 -6 -8 -1 -8 5 0 3 -7
-4 -15 -7 -8 -9 -15 -4 -15 4 0 1 -6 -8 -12 -9 -7 -35 -51 -59 -98 -23 -47
-67 -128 -97 -180 -30 -52 -67 -120 -81 -150 -26 -52 -56 -107 -115 -210 -14
-25 -26 -48 -26 -52 0 -8 129 39 148 54 6 6 12 7 12 4 0 -4 17 1 38 12 57 30
80 40 182 80 68 28 98 45 107 63 21 41 46 104 45 112 -1 4 3 7 9 7 5 0 7 5 4
10 -3 6 -1 10 4 10 6 0 10 3 9 8 -2 7 68 193 97 259 9 19 11 35 5 38 -5 3 -27
36 -49 73 -21 37 -51 81 -65 97 -41 47 -46 53 -46 65 0 23 -16 7 -37 -38z"/>
<path d="M2210 1439 c-7 -17 -24 -47 -38 -67 -13 -19 -50 -85 -81 -146 -32
-61 -74 -140 -95 -176 -20 -36 -49 -90 -64 -120 -15 -30 -29 -57 -32 -60 -3
-3 -14 -24 -24 -47 -10 -23 -27 -51 -38 -62 -10 -11 -18 -23 -18 -26 0 -3 -7
-19 -16 -36 -8 -17 -12 -35 -7 -39 4 -4 43 -19 86 -34 42 -16 77 -31 77 -35 0
-4 7 -8 15 -9 8 -1 22 -3 30 -4 8 -1 15 -5 15 -10 0 -5 5 -6 10 -3 6 3 10 1
10 -6 0 -7 3 -9 7 -6 3 4 11 3 18 -3 6 -5 72 -32 146 -60 73 -29 136 -56 137
-61 2 -5 8 -7 13 -4 5 3 19 0 31 -7 13 -7 26 -11 31 -10 4 1 7 -3 7 -9 0 -5 4
-8 9 -5 5 4 11 3 13 -2 1 -4 33 -19 70 -34 l68 -26 60 20 c33 12 60 25 60 30
0 5 5 6 10 3 6 -3 10 -2 10 3 0 5 6 9 13 9 10 1 265 102 276 110 2 1 -28 40
-66 85 -38 46 -82 101 -98 123 -17 22 -49 60 -72 84 -24 25 -43 49 -43 53 0 5
-11 20 -25 34 -14 14 -25 28 -25 32 0 4 -25 33 -55 65 -30 32 -55 61 -55 65 0
4 -20 29 -43 55 -24 26 -41 47 -38 47 3 0 -6 12 -22 28 -15 15 -75 86 -133
157 -58 72 -109 131 -114 133 -4 1 -13 -11 -20 -29z"/>
</g>
</svg>
